<svg xmlns="http://www.w3.org/2000/svg" viewBox="0 0 247.5 337.5" width="2.75in" height="3.75in">
    <defs>
        
  <g id="chi-rho-symbol-background">
    <line x1="-18" y1="-22" x2="18" y2="22" stroke="#1A1A1A" stroke-width="2.5" stroke-linecap="round" />
    <line x1="-18" y1="22" x2="18" y2="-22" stroke="#1A1A1A" stroke-width="2.5" stroke-linecap="round" />
    <line x1="-21" y1="-20" x2="-15" y2="-24" stroke="#1A1A1A" stroke-width="2" stroke-linecap="round" />
    <line x1="15" y1="24" x2="21" y2="20" stroke="#1A1A1A" stroke-width="2" stroke-linecap="round" />
    <line x1="-21" y1="20" x2="-15" y2="24" stroke="#1A1A1A" stroke-width="2" stroke-linecap="round" />
    <line x1="15" y1="-24" x2="21" y2="-20" stroke="#1A1A1A" stroke-width="2" stroke-linecap="round" />
    <line x1="0" y1="-32" x2="0" y2="28" stroke="#1A1A1A" stroke-width="2.5" stroke-linecap="round" />
    <line x1="-5" y1="28" x2="5" y2="28" stroke="#1A1A1A" stroke-width="2" stroke-linecap="round" />
    <path d="M 0,-32 C 14,-32 14,-10 0,-10" fill="none" stroke="#1A1A1A" stroke-width="2.5" stroke-linecap="round" stroke-linejoin="round" />
  </g>
    <pattern id="chi-rho-tessellation-background" width="30" height="17.32" patternUnits="userSpaceOnUse" patternTransform="scale(1.15)">
    <g opacity="0.03" transform="scale(0.25)">
      <use href="#chi-rho-symbol-background" x="30" y="34.641016" />
      <use href="#chi-rho-symbol-background" x="90" y="0" />
      <use href="#chi-rho-symbol-background" x="90" y="69.282032" />
      <use href="#chi-rho-symbol-background" x="-30" y="0" />
      <use href="#chi-rho-symbol-background" x="-30" y="69.282032" />
      <use href="#chi-rho-symbol-background" x="30" y="-34.641016" />
      <use href="#chi-rho-symbol-background" x="30" y="103.923048" />
    </g>
  </pattern>

    <style>
    @font-face { font-family: "EB Garamond"; src: url("../../../assets/fonts/EBGaramond-Regular.ttf"); }
    .header-title { font: 700 12px "EB Garamond", serif; letter-spacing: 1.5px; fill: #6B4F2A; }
    .scripture-num { font: 700 8.25px "EB Garamond", serif; fill: #6B4F2A; }
    .scripture-text { font: 11.0px "EB Garamond", serif; fill: #1A1A1A; }
    .footer-text { font: 600 6.5px "EB Garamond", serif; letter-spacing: .8px; fill: #666; }
    .header-rule { stroke: #6B4F2A; stroke-width: .5; opacity: .4; }
      .footer-rule { stroke: #1A1A1A; stroke-width: .5; opacity: .3; }
    </style>
    <linearGradient id="edge-right-15" x1="0" y1="0" x2="0" y2="1">
    <stop offset="0%" stop-color="#6B4F2A" />
    <stop offset="100%" stop-color="#6B4F2A" stop-opacity="0" />
    </linearGradient>
        <clipPath id="trim-15"><rect x="0" y="0" width="225" height="315" rx="12.5" /></clipPath>
  </defs>
    <rect width="247.5" height="337.5" fill="#FDFBF7" />
    <rect width="247.5" height="337.5" fill="url(#chi-rho-tessellation-background)" />
    <rect x="220.625" y="0" width="26.875" height="337.5" fill="url(#edge-right-15)" />
    <g transform="translate(11.25,11.25)" clip-path="url(#trim-15)">
    <text x="17" y="25" class="header-title">Matthew 6:10-15</text><line x1="17" y1="30" x2="190" y2="30" class="header-rule" />
    <text x="17" y="45.00" class="scripture-num">10</text><text x="31" y="45.00" class="scripture-text">Thy kingdom come. Thy will be</text><text x="17" y="58.00" class="scripture-num"></text><text x="31" y="58.00" class="scripture-text">done in earth, as it is in heaven.</text><text x="17" y="73.00" class="scripture-num">11</text><text x="31" y="73.00" class="scripture-text">Give us this day our daily bread.</text><text x="17" y="88.00" class="scripture-num">12</text><text x="31" y="88.00" class="scripture-text">And forgive us our debts, as we</text><text x="17" y="101.00" class="scripture-num"></text><text x="31" y="101.00" class="scripture-text">forgive our debtors.</text><text x="17" y="116.00" class="scripture-num">13</text><text x="31" y="116.00" class="scripture-text">And lead us not into temptation,</text><text x="17" y="129.00" class="scripture-num"></text><text x="31" y="129.00" class="scripture-text">but deliver us from evil: For thine is</text><text x="17" y="142.00" class="scripture-num"></text><text x="31" y="142.00" class="scripture-text">the kingdom, and the power, and the</text><text x="17" y="155.00" class="scripture-num"></text><text x="31" y="155.00" class="scripture-text">glory, for ever. Amen.</text><text x="17" y="170.00" class="scripture-num">14</text><text x="31" y="170.00" class="scripture-text">For if ye forgive men their trespasses,</text><text x="17" y="183.00" class="scripture-num"></text><text x="31" y="183.00" class="scripture-text">your heavenly Father will also</text><text x="17" y="196.00" class="scripture-num"></text><text x="31" y="196.00" class="scripture-text">forgive you:</text><text x="17" y="211.00" class="scripture-num">15</text><text x="31" y="211.00" class="scripture-text">But if ye forgive not men their</text><text x="17" y="224.00" class="scripture-num"></text><text x="31" y="224.00" class="scripture-text">trespasses, neither will your Father</text><text x="17" y="237.00" class="scripture-num"></text><text x="31" y="237.00" class="scripture-text">forgive your trespasses.</text>
    <line x1="17" y1="290" x2="190" y2="290" class="footer-rule" /><text x="17" y="300" class="footer-text">CHI-RHO</text><text x="103.5" y="300" text-anchor="middle" class="footer-text">KJV</text><text x="190" y="300" text-anchor="end" class="footer-text">8/14</text>
  </g>
</svg>